<?xml version="1.0" encoding="utf-8"?><svg viewBox="0 0 512 512" xmlns="http://www.w3.org/2000/svg" xmlns:xlink="http://www.w3.org/1999/xlink"><style>:root>svg{display:none}:root>svg:target{display:block}</style><svg viewBox="0 0 612 612" id="add-user-symbol" xmlns="http://www.w3.org/2000/svg"><path d="M275.4 295.8c81.682 0 147.899-66.217 147.899-147.9C423.299 66.218 357.082 0 275.4 0c-81.683 0-147.9 66.217-147.9 147.9s66.217 147.9 147.9 147.9zm70.061-89.196c-6.729 22.246-35.549 38.968-70.09 38.968-34.542 0-63.363-16.723-70.091-38.968h140.181zM586.5 510v20.4c0 5.634-4.566 10.2-10.199 10.2H515.1v61.2c0 5.634-4.566 10.2-10.199 10.2h-20.4c-5.633 0-10.199-4.566-10.199-10.2v-61.199H413.1c-5.633 0-10.199-4.566-10.199-10.2V510c0-5.633 4.566-10.199 10.199-10.199h61.201v-61.2c0-5.634 4.566-10.2 10.199-10.2h20.4c5.633 0 10.199 4.566 10.199 10.2v61.2H576.3c5.634-.001 10.2 4.566 10.2 10.199zm-204 0v20.4c0 5.419 1.535 10.438 4.016 14.857-30.803 3.35-67.52 5.542-111.116 5.542-142.607 0-212.393-23.302-237.979-34.686-6.602-2.938-11.921-11.336-11.921-18.562V448.8c0-73.056 55.624-133.663 126.599-141.78 2.157-.247 5.355.677 7.113 1.949C191.938 332.66 232.002 346.8 275.4 346.8s83.463-14.14 116.188-37.831c1.758-1.272 4.957-2.196 7.113-1.949 58.746 6.719 106.869 49.438 121.744 105.37-4.572-2.724-9.848-4.389-15.545-4.389h-20.4c-16.873 0-30.6 13.726-30.6 30.6v40.8h-40.8c-16.873-.001-30.6 13.725-30.6 30.599z" fill="#FFF"/></svg><svg viewBox="0 0 795.035 795.035" id="books-stack" xmlns="http://www.w3.org/2000/svg"><path d="M0 647.589c0 49.892 40.588 90.479 90.479 90.479h654.293v-40.212h-41.895V597.322h41.895v-17.594h50.264v-40.212h-30.16V438.989h30.16v-40.211h-32.673v-34.365l-49.647-92.992h52.161v-54.073L633.665 56.968H170.738L51.356 245.075c-20.417 16.612-33.76 41.625-33.76 69.935 0 49.581 40.114 89.89 89.593 90.383-33.291 13.372-56.922 45.847-56.922 83.864 0 27.604 12.688 52.046 32.242 68.656C36.395 562.022 0 600.426 0 647.589zM57.806 315.01c0-18.75 10.429-34.946 25.686-43.586H682.77v93.854H108.074c-27.715-.002-50.268-22.558-50.268-50.268zm82.941 123.981h583.915v100.526H140.747c-27.715 0-50.268-22.541-50.268-50.26.001-27.727 22.553-50.266 50.268-50.266zM90.48 597.322h572.187v100.533H90.479c-27.713 0-50.265-22.541-50.265-50.267 0-27.726 22.553-50.266 50.266-50.266z" fill="#FFF"/></svg><svg viewBox="0 0 512 512" id="coding" xmlns="http://www.w3.org/2000/svg"><path d="M485.517 61.793H26.483C11.857 61.793 0 73.65 0 88.276v335.448c0 14.626 11.857 26.483 26.483 26.483h459.034c14.626 0 26.483-11.857 26.483-26.483V88.276c0-14.626-11.857-26.483-26.483-26.483zm-44.138 17.655h8.828a8.829 8.829 0 0 1 0 17.656h-8.828a8.829 8.829 0 0 1 0-17.656zm-247.172 0h211.862a8.829 8.829 0 0 1 0 17.656H194.207a8.829 8.829 0 0 1 0-17.656zm-44.138 0h8.828a8.829 8.829 0 0 1 0 17.656h-8.828a8.829 8.829 0 0 1 0-17.656zm-35.31 0h8.828a8.829 8.829 0 0 1 0 17.656h-8.828a8.829 8.829 0 0 1 0-17.656zm-35.311 0a8.829 8.829 0 1 1-.001 17.657 8.829 8.829 0 0 1 .001-17.657zm-26.482 0a8.829 8.829 0 1 1-.001 17.657 8.829 8.829 0 0 1 .001-17.657zm-26.483 0a8.829 8.829 0 1 1-.001 17.657 8.829 8.829 0 0 1 .001-17.657zm467.862 88.276v256a8.829 8.829 0 0 1-8.828 8.828H26.483a8.829 8.829 0 0 1-8.828-8.828V123.586a8.829 8.829 0 0 1 8.828-8.828h459.034a8.829 8.829 0 0 1 8.828 8.828v44.138zm-8.828-70.621h-8.828a8.829 8.829 0 0 1 0-17.656h8.828a8.829 8.829 0 0 1 0 17.656z" fill="#d2dcf0"/><path d="M256 432.552h229.517a8.829 8.829 0 0 0 8.828-8.828v-256H256v264.828zm132.414-220.69v-8.828a8.829 8.829 0 0 1 8.828-8.828h61.793a8.829 8.829 0 0 1 8.828 8.828v79.449a8.829 8.829 0 0 1-8.828 8.828h-61.793a8.829 8.829 0 0 1-8.828-8.828v-70.621zm-105.931 0v-8.828a8.829 8.829 0 0 1 8.828-8.828h61.793a8.829 8.829 0 0 1 8.828 8.828v79.449a8.829 8.829 0 0 1-8.828 8.828H291.31a8.829 8.829 0 0 1-8.828-8.828v-70.621zm8.827 105.931h167.725a8.829 8.829 0 0 1 8.828 8.828v70.621a8.829 8.829 0 0 1-8.828 8.828H291.31a8.829 8.829 0 0 1-8.828-8.828v-70.621a8.83 8.83 0 0 1 8.828-8.828z" fill="#fff"/><circle cx="26.483" cy="88.276" r="8.828" fill="#ff6469"/><circle cx="52.966" cy="88.276" r="8.828" fill="#ffe169"/><circle cx="79.448" cy="88.276" r="8.828" fill="#87e1aa"/><path d="M114.759 97.103h8.828a8.829 8.829 0 0 0 0-17.656h-8.828a8.829 8.829 0 0 0 0 17.656zm35.31 0h8.828a8.829 8.829 0 0 0 0-17.656h-8.828a8.829 8.829 0 0 0 0 17.656zm291.31 0h8.828a8.829 8.829 0 0 0 0-17.656h-8.828a8.829 8.829 0 0 0 0 17.656zm44.138-17.655h-8.828a8.829 8.829 0 0 0 0 17.656h8.828a8.829 8.829 0 0 0 0-17.656zm-291.31 17.655h211.862a8.829 8.829 0 0 0 0-17.656H194.207a8.829 8.829 0 0 0 0 17.656z" fill="#e4eaf6"/><path d="M485.517 114.759H256v52.966h238.345v-44.138a8.828 8.828 0 0 0-8.828-8.828zm-167.724 35.31h-35.31a8.829 8.829 0 0 1 0-17.656h35.31a8.829 8.829 0 0 1 0 17.656zm70.621 0h-35.31a8.829 8.829 0 0 1 0-17.656h35.31a8.829 8.829 0 0 1 0 17.656zm70.62 0h-35.31a8.829 8.829 0 0 1 0-17.656h35.31a8.829 8.829 0 0 1 0 17.656z" fill="#ff6469"/><path d="M317.793 132.414h-35.31a8.829 8.829 0 0 0 0 17.656h35.31a8.829 8.829 0 0 0 0-17.656zm70.621 0h-35.31a8.829 8.829 0 0 0 0 17.656h35.31a8.829 8.829 0 0 0 0-17.656zm70.62 0h-35.31a8.829 8.829 0 0 0 0 17.656h35.31a8.829 8.829 0 0 0 0-17.656z" fill="#d2555f"/><path d="M291.31 291.31h61.793a8.829 8.829 0 0 0 8.828-8.828v-70.621a8.829 8.829 0 0 1-8.828 8.828H291.31a8.829 8.829 0 0 1-8.828-8.828v70.621a8.829 8.829 0 0 0 8.828 8.828zm105.931 0h61.793a8.829 8.829 0 0 0 8.828-8.828v-70.621a8.829 8.829 0 0 1-8.828 8.828h-61.793a8.829 8.829 0 0 1-8.828-8.828v70.621a8.829 8.829 0 0 0 8.828 8.828z" fill="#dee3ed"/><path d="M291.31 220.69h61.793a8.829 8.829 0 0 0 8.828-8.828v-8.828a8.829 8.829 0 0 0-8.828-8.828H291.31a8.829 8.829 0 0 0-8.828 8.828v8.828a8.83 8.83 0 0 0 8.828 8.828z" fill="#ff969b"/><path d="M397.241 220.69h61.793a8.829 8.829 0 0 0 8.828-8.828v-8.828a8.829 8.829 0 0 0-8.828-8.828h-61.793a8.829 8.829 0 0 0-8.828 8.828v8.828a8.83 8.83 0 0 0 8.828 8.828z" fill="#a0dcf0"/><path d="M308.966 326.621v70.621a8.829 8.829 0 0 1-8.828 8.828h158.897a8.829 8.829 0 0 0 8.828-8.828v-70.621a8.829 8.829 0 0 0-8.828-8.828H300.138a8.829 8.829 0 0 1 8.828 8.828z" fill="#dee3ed"/><path d="M291.31 406.069h8.828a8.829 8.829 0 0 0 8.828-8.828V326.62a8.829 8.829 0 0 0-8.828-8.828h-8.828a8.829 8.829 0 0 0-8.828 8.828v70.621a8.83 8.83 0 0 0 8.828 8.828z" fill="#91e6be"/><path d="M256 114.759H26.483a8.829 8.829 0 0 0-8.828 8.828v300.138a8.829 8.829 0 0 0 8.828 8.828H256V114.759zM88.276 141.241h141.241a8.829 8.829 0 0 1 0 17.656H88.276a8.829 8.829 0 0 1 0-17.656zm-44.138 0h8.828a8.829 8.829 0 0 1 0 17.656h-8.828a8.829 8.829 0 0 1 0-17.656zm88.276 52.966h-26.483a8.829 8.829 0 0 1 0-17.656h26.483a8.829 8.829 0 0 1 0 17.656zm8.827 26.483a8.829 8.829 0 0 1-8.828 8.828H105.93a8.829 8.829 0 0 1 0-17.656h26.483a8.828 8.828 0 0 1 8.828 8.828zm-97.103 61.793h8.828a8.829 8.829 0 0 1 0 17.656h-8.828a8.829 8.829 0 0 1 0-17.656zM35.31 256a8.829 8.829 0 0 1 8.828-8.828h8.828a8.829 8.829 0 0 1 0 17.656h-8.828A8.829 8.829 0 0 1 35.31 256zm26.483 61.793h8.828a8.829 8.829 0 0 1 0 17.656h-8.828a8.829 8.829 0 0 1 0-17.656zm8.828-88.276h-8.828a8.829 8.829 0 0 1 0-17.656h8.828a8.829 8.829 0 0 1 0 17.656zm0-35.31h-8.828a8.829 8.829 0 0 1 0-17.656h8.828a8.829 8.829 0 0 1 0 17.656zM52.966 406.069h-8.828a8.829 8.829 0 0 1 0-17.656h8.828a8.829 8.829 0 0 1 0 17.656zm17.655-35.31h-8.828a8.829 8.829 0 0 1 0-17.656h8.828a8.829 8.829 0 0 1 0 17.656zm158.896 35.31H88.276a8.829 8.829 0 0 1 0-17.656h141.241a8.829 8.829 0 0 1 0 17.656zm-123.586-52.966h26.483a8.829 8.829 0 0 1 0 17.656h-26.483a8.829 8.829 0 0 1 0-17.656zm-8.828-26.482a8.829 8.829 0 0 1 8.828-8.828h26.483a8.829 8.829 0 0 1 0 17.656h-26.483a8.83 8.83 0 0 1-8.828-8.828zm132.414 44.138h-61.793a8.829 8.829 0 0 1 0-17.656h61.793a8.829 8.829 0 0 1 0 17.656zm0-35.311h-61.793a8.829 8.829 0 0 1 0-17.656h61.793a8.829 8.829 0 0 1 0 17.656zm0-35.31H88.276a8.829 8.829 0 0 1 0-17.656h141.241a8.829 8.829 0 0 1 0 17.656zm0-35.31H88.276a8.829 8.829 0 0 1 0-17.656h141.241a8.829 8.829 0 0 1 0 17.656zm0-35.311h-61.793a8.829 8.829 0 0 1 0-17.656h61.793a8.829 8.829 0 0 1 0 17.656zm0-35.31h-61.793a8.829 8.829 0 0 1 0-17.656h61.793a8.829 8.829 0 0 1 0 17.656z" fill="#464655"/><path d="M88.276 158.897h141.241a8.829 8.829 0 0 0 0-17.656H88.276a8.829 8.829 0 0 0 0 17.656z" fill="#ffe169"/><path d="M132.414 176.552h-26.483a8.829 8.829 0 0 0 0 17.656h26.483a8.829 8.829 0 0 0 0-17.656zm0 35.31h-26.483a8.829 8.829 0 0 0 0 17.656h26.483a8.829 8.829 0 0 0 0-17.656z" fill="#91e6be"/><path d="M229.517 247.172H88.276a8.829 8.829 0 0 0 0 17.656h141.241a8.829 8.829 0 0 0 0-17.656z" fill="#ffe169"/><path d="M229.517 282.483H88.276a8.829 8.829 0 0 0 0 17.656h141.241a8.829 8.829 0 0 0 0-17.656zm0-105.931h-61.793a8.829 8.829 0 0 0 0 17.656h61.793a8.829 8.829 0 0 0 0-17.656zm0 35.31h-61.793a8.829 8.829 0 0 0 0 17.656h61.793a8.829 8.829 0 0 0 0-17.656zm0 105.931h-61.793a8.829 8.829 0 0 0 0 17.656h61.793a8.829 8.829 0 0 0 0-17.656zm0 35.31h-61.793a8.829 8.829 0 0 0 0 17.656h61.793a8.829 8.829 0 0 0 0-17.656z" fill="#fff"/><path d="M105.931 335.448h26.483a8.829 8.829 0 0 0 0-17.656h-26.483a8.829 8.829 0 0 0 0 17.656zm0 35.311h26.483a8.829 8.829 0 0 0 0-17.656h-26.483a8.829 8.829 0 0 0 0 17.656z" fill="#91e6be"/><path d="M229.517 388.414H88.276a8.829 8.829 0 0 0 0 17.656h141.241a8.829 8.829 0 0 0 0-17.656z" fill="#ffe169"/><path d="M44.138 158.897h8.828a8.829 8.829 0 0 0 0-17.656h-8.828a8.829 8.829 0 0 0 0 17.656zm26.483 17.655h-8.828a8.829 8.829 0 0 0 0 17.656h8.828a8.829 8.829 0 0 0 0-17.656zm0 35.31h-8.828a8.829 8.829 0 0 0 0 17.656h8.828a8.829 8.829 0 0 0 0-17.656zm-26.483 52.966h8.828a8.829 8.829 0 0 0 0-17.656h-8.828a8.829 8.829 0 0 0 0 17.656zm0 35.31h8.828a8.829 8.829 0 0 0 0-17.656h-8.828a8.829 8.829 0 0 0 0 17.656zm17.655 35.31h8.828a8.829 8.829 0 0 0 0-17.656h-8.828a8.829 8.829 0 0 0 0 17.656zm8.828 17.655h-8.828a8.829 8.829 0 0 0 0 17.656h8.828a8.829 8.829 0 0 0 0-17.656zm-17.655 35.311h-8.828a8.829 8.829 0 0 0 0 17.656h8.828a8.829 8.829 0 0 0 0-17.656z" fill="#ff6469"/></svg><svg viewBox="0 0 480 480" id="company" xmlns="http://www.w3.org/2000/svg"><path fill="#17b2b0" d="M104 352v-40h32v40h96v-96h-64v-40H72v40H8v96h64z"/><path fill="#ffa244" d="M408 336h-96v40h-64v96h96v-40h32v40h96v-96h-64z"/><path fill="#68e8bb" d="M352 48h-64V8h-96v40h-64v96h96v-40h32v40h96V81.768z"/><path d="M288 144h-32v-40h-32v40h-96v-19.184C77.032 152.968 37.888 199.784 19.528 256H72v-40h96v40h64v96h-96v-40h-32v40H9.36c4.656 45.072 22.104 86.336 48.808 120H248v-96h64v-40h96v40h58.808c3.272-15.504 5.192-31.512 5.192-48 0-87.504-48.464-163.672-120-203.184V144h-64zm56 288h32v40h-32zm8-350.232C356.256 85.6 361.824 88 368 88h80c13.256 0 24-10.744 24-24s-10.744-24-24-24c-3.056 0-5.952.624-8.64 1.664C436.424 27.032 423.504 16 408 16s-28.424 11.032-31.36 25.664C373.952 40.624 371.056 40 368 40c-7.08 0-13.376 3.12-17.768 8H352v33.768zM112 56c-3.056 0-5.952.624-8.64 1.664C100.424 43.032 87.504 32 72 32S43.576 43.032 40.64 57.664C37.952 56.624 35.056 56 32 56 18.744 56 8 66.744 8 80s10.744 24 24 24h80c6.176 0 11.744-2.4 16-6.232V62.232C123.744 58.4 118.176 56 112 56z" fill="#dcdcdc"/><g fill="#143446"><path d="M152 72h16v16h-16zm64-40h16v16h-16zm32 0h16v16h-16zm64 40h16v16h-16zm-160 32h16v16h-16zm160 0h16v16h-16zm-96-40h16v16h-16zm32 0h16v16h-16zM96 240h16v16H96zm32 0h16v16h-16zm-32 32h16v16H96zm32 0h16v16h-16zm208 88h16v16h-16zm32 0h16v16h-16zm-32 32h16v16h-16zm32 0h16v16h-16zm-96 8h16v16h-16zm0 32h16v16h-16zm160-32h16v16h-16zm0 32h16v16h-16zM192 280h16v16h-16zm0 32h16v16h-16zM32 280h16v16H32zm0 32h16v16H32zm72 72h16v16h-16zm0 32h16v16h-16zm32 0h16v16h-16zm32 0h16v16h-16zm32 0h16v16h-16zm64-136h16v16h-16zm32 0h16v16h-16zm32 0h16v16h-16zm32 0h16v16h-16zM216 176h16v16h-16zm0 32h16v16h-16z"/><path d="M368 96h80c17.648 0 32-14.352 32-32 0-18.744-16.504-33.8-35.272-31.824C438.512 17.792 424.168 8 408 8s-30.512 9.792-36.728 24.176c-8.84-.944-17.656 1.976-24.304 7.824H296V8c0-4.424-3.576-8-8-8h-96c-4.424 0-8 3.576-8 8v32h-56c-4.424 0-8 3.576-8 8v1.192c-3.656-.968-7.448-1.416-11.272-1.008C102.512 33.792 88.168 24 72 24s-30.512 9.792-36.728 24.176C16.552 46.192 0 61.256 0 80c0 17.648 14.352 32 32 32h80c2.728 0 5.392-.48 8-1.168v9.392C70.376 148.92 32.968 193.976 13.872 248H8c-4.424 0-8 3.576-8 8v96c0 1.992.8 3.752 2 5.152 5.344 43.872 22.464 85.232 49.904 119.816A8.006 8.006 0 0 0 58.168 480H472c4.424 0 8-3.576 8-8v-96c0-2.856-1.576-5.24-3.824-6.656C478.664 355.328 480 341.448 480 328c0-85.744-45.896-164.832-120-207.72V94.832c2.608.688 5.272 1.168 8 1.168zm5.736-46.872c2.2.864 4.664.712 6.752-.44a8.023 8.023 0 0 0 4-5.448C386.72 32.096 396.608 24 408 24s21.28 8.096 23.512 19.24a8.023 8.023 0 0 0 4 5.448 7.935 7.935 0 0 0 6.752.44C453.104 44.912 464 53.288 464 64c0 8.824-7.176 16-16 16h-80c-2.808 0-5.56-.776-8-2.216V50.192c4-2.368 8.92-2.936 13.736-1.064zM344 56v80h-48V56h48zM200 16h80v120h-16v-32c0-4.424-3.576-8-8-8h-32c-4.424 0-8 3.576-8 8v32h-16V16zm48 120h-16v-24h16v24zM136 56h48v80h-48V56zm-24 40H32c-8.824 0-16-7.176-16-16s7.176-16 16-16c1.888 0 3.824.384 5.736 1.128 2.2.864 4.672.712 6.752-.44a8.023 8.023 0 0 0 4-5.448C50.72 48.096 60.608 40 72 40s21.28 8.096 23.512 19.24a8.023 8.023 0 0 0 4 5.448 7.934 7.934 0 0 0 6.752.44c4.752-1.856 9.656-1.328 13.736 1.088v27.56c-2.44 1.448-5.192 2.224-8 2.224zm64 168h48v80h-48v-80zm-16-8v88h-16v-32c0-4.424-3.576-8-8-8h-32c-4.424 0-8 3.576-8 8v32H80V224h80v32zm-32 88h-16v-24h16v24zm-64 0H16v-80h48v80zm240 120h-48v-80h48v80zm16-88v-32h80v120h-16v-32c0-4.424-3.576-8-8-8h-32c-4.424 0-8 3.576-8 8v32h-16v-88zm32 88v-24h16v24h-16zm112 0h-48v-80h48v80zm0-136c0 12.984-1.264 26.416-3.768 40H416v-32c0-4.424-3.576-8-8-8h-96c-4.424 0-8 3.576-8 8v32h-56c-4.424 0-8 3.576-8 8v88H62.08c-23.248-30.376-38.24-66.096-43.672-104H232c4.424 0 8-3.576 8-8v-96c0-4.424-3.576-8-8-8h-56v-32c0-4.424-3.576-8-8-8H72c-4.424 0-8 3.576-8 8v32H30.84c17.256-45.168 48.392-83.272 89.16-109.152V144c0 4.424 3.576 8 8 8h224c4.424 0 8-3.576 8-8v-5.152C424.488 179.824 464 251.088 464 328z"/></g></svg><svg viewBox="0 0 454.189 454.189" id="customer-service" xmlns="http://www.w3.org/2000/svg"><path d="M308.568 16.225v169.831c0 7.511-5.104 13.836-12.042 15.676a16.164 16.164 0 0 1-4.18.546H18.68c-8.961 0-16.223-7.262-16.223-16.223V16.225C2.457 7.264 9.719.002 18.68.002h273.666c1.443 0 2.845.189 4.18.546 6.938 1.841 12.042 8.165 12.042 15.677z" fill="#e6e6e6"/><path d="M308.566 16.223v16.142H2.456V16.223C2.456 7.262 9.718 0 18.678 0h273.666c8.961 0 16.222 7.262 16.222 16.223z" fill="#b3b3b3"/><circle cx="24.706" cy="16.182" r="10.114" fill="#fc7a51"/><circle cx="51.676" cy="16.182" r="10.114" fill="#f9de58"/><path d="M32.676 61.817h235v11h-235zm0 24.091h235v11h-235zm0 24.091h235v11h-235zm0 24.092h235v11h-235zm0 24.091h235v11h-235z" fill="gray"/><path d="M307.569 222.203l-40.93 37.75c-18.44 17.01-46.85 17.01-65.29 0l-40.92-37.75a49.261 49.261 0 0 1-15.72-39.89l2.38-49c.25-3.29.67-6.53 1.28-9.7 2.84-15.07 9.53-28.71 18.98-39.91 4.2-4.99 8.95-9.49 14.15-13.41 14.64-11.07 32.85-17.59 52.5-17.59s37.86 6.53 52.5 17.59c2.35 1.77 4.61 3.66 6.77 5.66 2.61 2.43 5.08 5.01 7.38 7.74 9.45 11.2 16.14 24.84 18.98 39.92.61 3.17 1.03 6.41 1.28 9.7l2.37 49a49.258 49.258 0 0 1-15.71 39.89z" fill="#fcd18b"/><path d="M263.829 209.692a29.71 29.71 0 0 1-1.357 8.906c-3.79 12.127-15.107 20.925-28.474 20.925-13.375 0-24.692-8.797-28.474-20.925a29.715 29.715 0 0 1-1.357-8.906h59.662z" fill="#fff"/><path d="M345.49 124.923h-13c0-54.31-44.185-98.495-98.494-98.495-54.311 0-98.495 44.185-98.495 98.495h-13c0-61.479 50.017-111.495 111.495-111.495S345.49 63.445 345.49 124.923z" fill="#f9de58"/><path d="M319.629 123.613c-2.84-15.08-9.53-28.72-18.98-39.92-2.3-2.73-4.77-5.31-7.38-7.74a87.745 87.745 0 0 0-3.209-2.824c-.219-.184-.446-.357-.667-.538a88.155 88.155 0 0 0-2.72-2.159c-.059-.045-.115-.094-.174-.138l-.007.005c-14.643-11.057-32.847-17.595-52.493-17.595-19.651 0-37.86 6.529-52.498 17.592l-.002-.002c-.022.017-.042.035-.064.051a88.091 88.091 0 0 0-3.549 2.835l-.337.282a88.787 88.787 0 0 0-3.251 2.911c-.127.12-.256.237-.383.357a87.476 87.476 0 0 0-3.117 3.125c-.093.098-.188.193-.28.291a86.936 86.936 0 0 0-3.169 3.557c-9.45 11.2-16.14 24.84-18.98 39.91 12.765-3.477 24.129-10.323 33.119-19.504 13.34 13.625 31.938 22.084 52.511 22.084 20.574 0 39.164-8.459 52.5-22.079 8.994 9.181 20.363 16.027 33.13 19.499z" fill="gray"/><g fill="gray"><circle cx="194.995" cy="163.953" r="10"/><circle cx="272.995" cy="163.953" r="10"/></g><path d="M180.095 250.953l51 51-24 39-40-80zm107.8 0l-51 51 24 39 40-80z" fill="#e6e6e6"/><path fill="#2be0c6" d="M248.137 334.953l-14.142-24-14.142 24 14.142 14.142zm24.744 80.351l-38.886-65.991-38.885 65.991 38.885 38.885z"/><path d="M184.959 224.953c0 1.8-.73 3.42-1.9 4.6a6.51 6.51 0 0 1-4.6 1.9h-30.73c-14.42 0-26.11-11.69-26.11-26.11v-17.39h13v17.39c0 7.24 5.87 13.11 13.11 13.11h30.73a6.5 6.5 0 0 1 6.5 6.5z" fill="#fc7a51"/><path d="M137.457 113.853c-22.556 0-40.841 18.285-40.841 40.841s18.285 40.841 40.841 40.841m193.076-81.682c22.556 0 40.841 18.285 40.841 40.841s-18.285 40.841-40.841 40.841" fill="#29abe2"/><path d="M184.959 224.953c0 1.8-.73 3.42-1.9 4.6a6.51 6.51 0 0 1-4.6 1.9h-19v-13h19a6.5 6.5 0 0 1 6.5 6.5zm254.887 199.901H319.62c-6.565 0-11.887-5.322-11.887-11.887V257.741c0-6.565 5.322-11.887 11.887-11.887h120.227c6.565 0 11.887 5.322 11.887 11.887v155.227c-.001 6.564-5.323 11.886-11.888 11.886z" fill="gray"/><path fill="#e6e6e6" d="M322.733 260.854h114v149h-114z"/><path d="M393.161 237.854h-26.855a7.572 7.572 0 0 0-7.572 7.572v25.428h42v-25.428a7.574 7.574 0 0 0-7.573-7.572zM336.733 285.854h86v11h-86zm0 24.092h86v11h-86zm0 24.091h86v11h-86zm0 24.091h86v11h-86zm0 24.092h43v11h-43z" fill="#29abe2"/><path d="M58.285 239.366c-30.369 0-54.987 24.619-54.987 54.987 0 17.057 7.768 32.3 19.958 42.385l-11.133 31.173 28.672-21.413-.013-.02a54.904 54.904 0 0 0 17.504 2.862c30.368 0 54.987-24.619 54.987-54.987s-24.619-54.987-54.988-54.987z" fill="#fc7a51"/><path d="M49.943 303.296c0-3.263.533-6.194 1.599-8.792 1.065-2.598 3.263-4.861 6.594-6.794a73.681 73.681 0 0 1 3.697-2.048 30.078 30.078 0 0 0 4.296-2.747 15.764 15.764 0 0 0 3.547-3.747c.965-1.431 1.449-3.08 1.449-4.945 0-1.399-.267-2.63-.799-3.697a8.453 8.453 0 0 0-2.098-2.697c-.867-.732-1.883-1.282-3.047-1.649a11.807 11.807 0 0 0-3.546-.549c-1.466 0-2.798.25-3.997.749s-2.282 1.133-3.247 1.898a15.962 15.962 0 0 0-2.598 2.598 28.504 28.504 0 0 0-1.948 2.748l-8.692-5.995c.865-2.064 2.014-3.896 3.447-5.495a21.097 21.097 0 0 1 4.895-4.046 22.894 22.894 0 0 1 5.945-2.497 25.62 25.62 0 0 1 6.594-.849c2.531 0 5.029.367 7.494 1.099a19.035 19.035 0 0 1 6.644 3.497c1.964 1.599 3.562 3.647 4.795 6.144 1.232 2.498 1.848 5.479 1.848 8.942 0 2.132-.249 4.013-.749 5.645a15.726 15.726 0 0 1-2.148 4.446 18.749 18.749 0 0 1-3.297 3.597 37.629 37.629 0 0 1-4.296 3.097 123.05 123.05 0 0 1-3.997 2.298 24.092 24.092 0 0 0-3.647 2.448 11.912 11.912 0 0 0-2.698 3.097c-.699 1.166-1.049 2.582-1.049 4.246H49.943v-.002zm.2 23.278v-13.787h11.09v13.787h-11.09z" fill="#fff"/><path d="M186.362 321.124l11.133-31.173-28.672 21.413.013.02a54.904 54.904 0 0 0-17.504-2.862c-30.369 0-54.987 24.619-54.987 54.987s24.618 54.987 54.987 54.987c30.368 0 54.987-24.619 54.987-54.987.001-17.057-7.767-32.299-19.957-42.385z" fill="#29abe2"/><path d="M145.49 371.66v-39.244h11.687v39.244H145.49zm0 23.285v-13.168h11.687v13.168H145.49z" fill="#fff"/></svg><svg viewBox="0 0 490.4 490.4" id="download" xmlns="http://www.w3.org/2000/svg"><path fill="#0e75af" d="M141.2 0h216v24h-216z"/><path fill="#04547c" d="M357.2 24V0h-216"/><path fill="#0e75af" d="M141.2 48h216v32h-216z"/><path fill="#04547c" d="M357.2 80V48h-216"/><path fill="#0e75af" d="M357.2 208V96h-216v112H98.8l146.4 146.4L391.6 208z"/><path fill="#04547c" d="M245.2 354.4L391.6 208h-34.4V96h-216"/><path fill="#0dd396" d="M245.2 408l-64-64H98.8l146.4 146.4L391.6 344h-82.4z"/><path fill="#23c181" d="M245.2 488.8L391.6 344h-82.4l-64 63.2"/></svg><svg viewBox="0 0 470.513 470.513" id="facebook-logo" xmlns="http://www.w3.org/2000/svg"><path d="M271.521 154.17v-40.541c0-6.086.28-10.8.849-14.13.567-3.335 1.857-6.615 3.859-9.853 1.999-3.236 5.236-5.47 9.706-6.708 4.476-1.24 10.424-1.858 17.85-1.858h40.539V0h-64.809c-37.5 0-64.433 8.897-80.803 26.691-16.368 17.798-24.551 44.014-24.551 78.658v48.82h-48.542v81.086h48.539v235.256h97.362V235.256h64.805l8.566-81.086h-73.37z" fill="#FFF"/></svg><svg viewBox="0 0 410.585 410.585" id="heart" xmlns="http://www.w3.org/2000/svg"><path d="M245.685 215.694c31.903-30.012 71.505-67.284 76.951-100.446 3.818-23.446.094-42.781-11.094-57.462-11.298-14.819-28.459-23.275-52.512-25.852a64.453 64.453 0 0 0-6.518-.342c-17.022 0-34.186 6.331-47.376 17.039-13.173-10.708-30.352-17.039-47.341-17.039-2.114 0-4.208.109-6.536.342-24.054 2.576-41.23 11.032-52.513 25.852-11.187 14.681-14.913 34.016-11.096 57.462 5.447 33.178 45.048 70.435 76.953 100.446 0 0 15.921 15.983 20.699 20.08 3.604 3.088 11.395 9.295 19.849 9.295 8.442 0 16.248-6.207 19.833-9.295 4.779-4.097 20.701-20.08 20.701-20.08z" fill="#d43d21"/><path d="M148.829 267.338c-1.736-1.334-15.503-11.746-53.69-14.293-2.096-.17-4.223-1.66-6.086-2.9-.454-.303-.911-.611-1.367-.922-1.924-1.316-3.816-2.73-5.275-4.463-2.915-3.492-6.22-6.426-8.998-10.305-18.558-25.883-36.76-31.066-39.479-32.105-3.614-1.736-6.082-2.244-6.887-4.717-.327-1.148-3.477-31.205-4.038-36.25-1.564-14.494-3.117-25.232-11.42-28.148-2.14-.762-3.662-.512-5.243 1.178-1.896 1.988-3.011 12.51-3.556 19.166 0 0-3.128 38.89-2.76 52.373s23.699 67.345 36.2 79.914 70.358 45.453 70.358 45.453c2.081 1.736 13.642 10.629 13.642 22.299v13.152s-1.649 12.17 11.686 12.17 31.834.053 45.001.053 10.598-11.891 10.608-16.057l.017-6.451.001-.711c.157-4.299.887-8.566 1.399-12.834 1.458-4.887.295-14.121-.389-17.705-7.822-34.867-36.592-55.459-39.724-57.897zm258.668-113.759c-.545-6.656-1.66-17.178-3.556-19.166-1.581-1.689-3.103-1.939-5.243-1.178-8.304 2.916-9.856 13.654-11.42 28.148-.561 5.045-3.711 35.102-4.038 36.25-.805 2.473-3.273 2.98-6.887 4.717-2.719 1.039-20.921 6.223-39.479 32.105-2.778 3.879-6.083 6.813-8.998 10.305-1.459 1.732-3.351 3.146-5.275 4.463-.456.311-.913.619-1.367.922-1.864 1.24-3.99 2.73-6.086 2.9-38.187 2.547-51.954 12.959-53.69 14.293-3.132 2.438-31.902 23.029-39.724 57.896-.684 3.584-1.847 12.818-.389 17.705.512 4.268 1.242 8.535 1.399 12.834l.001.711.017 6.451c.011 4.166-2.559 16.057 10.608 16.057s31.666-.053 45.001-.053 11.686-12.17 11.686-12.17v-13.152c0-11.67 11.561-20.563 13.642-22.299 0 0 62.396-35.971 70.358-45.453s34.675-66.764 36.2-79.914-2.76-52.372-2.76-52.372z" fill="#dec8ae"/></svg><svg viewBox="0 0 60 60" id="hourglass" xmlns="http://www.w3.org/2000/svg"><path d="M41.857 22.096A7.063 7.063 0 0 0 45 16.222V5H15v11.222c0 2.36 1.18 4.564 3.143 5.874l9.319 6.843a1.318 1.318 0 0 1 .001 2.122l-9.319 6.843A7.061 7.061 0 0 0 15 43.778V55h30V43.778c0-2.36-1.18-4.564-3.143-5.874l-9.319-6.843a1.318 1.318 0 0 1-.001-2.122l9.32-6.843z" fill="#e6e6e6"/><path fill="#9e6c53" d="M10 55h40v4H10zm0-54h40v4H10z"/><path d="M54 58H6a1 1 0 1 0 0 2h48a1 1 0 1 0 0-2zM6 2h48a1 1 0 1 0 0-2H6a1 1 0 1 0 0 2z" fill="#8a5336"/><path d="M40.192 19.6A4.053 4.053 0 0 0 42 16.223a2.847 2.847 0 0 0-2.156-2.762L24.791 9.698C21.342 8.835 18 11.444 18 15v1.223c0 1.359.676 2.622 1.808 3.377L29 26.346v15.877c0 3.63-3.764 6.036-7.058 4.511-1.774-.821-3.922.394-3.941 2.349V55h24V43.736c-.019-1.931-1.889-3.322-3.791-2.991l-2.049.357A4.405 4.405 0 0 1 31 36.763V26.346l9.192-6.746z" fill="#ebba16"/></svg><svg viewBox="0 0 512 512" id="instagram" xmlns="http://www.w3.org/2000/svg"><path d="M352 0H160C71.648 0 0 71.648 0 160v192c0 88.352 71.648 160 160 160h192c88.352 0 160-71.648 160-160V160C512 71.648 440.352 0 352 0zm112 352c0 61.76-50.24 112-112 112H160c-61.76 0-112-50.24-112-112V160C48 98.24 98.24 48 160 48h192c61.76 0 112 50.24 112 112v192z" fill="#FFF"/><path d="M256 128c-70.688 0-128 57.312-128 128s57.312 128 128 128 128-57.312 128-128-57.312-128-128-128zm0 208c-44.096 0-80-35.904-80-80 0-44.128 35.904-80 80-80s80 35.872 80 80c0 44.096-35.904 80-80 80z" fill="#FFF"/><circle cx="393.6" cy="118.4" r="17.056" fill="#FFF"/></svg><svg viewBox="0 0 54.981 54.981" id="list" xmlns="http://www.w3.org/2000/svg"><path d="M43.992 52H8.72a8.364 8.364 0 0 1-8.364-8.364V8.364A8.364 8.364 0 0 1 8.72 0h35.272a8.364 8.364 0 0 1 8.364 8.364v35.272A8.364 8.364 0 0 1 43.992 52z" fill="#3abca7"/><path d="M44.356 14h-18a1 1 0 1 1 0-2h18a1 1 0 1 1 0 2zm0 14h-18a1 1 0 1 1 0-2h18a1 1 0 1 1 0 2zm0 14h-18a1 1 0 1 1 0-2h18a1 1 0 1 1 0 2zM12.427 17a.997.997 0 0 1-.6-.2l-4.571-3.429a.999.999 0 1 1 1.2-1.599l3.822 2.866 6.248-7.288a.999.999 0 1 1 1.518 1.301l-6.857 8a1 1 0 0 1-.76.349zm0 14a.997.997 0 0 1-.6-.2l-4.571-3.429a.999.999 0 1 1 1.2-1.599l3.822 2.866 6.248-7.288a.999.999 0 1 1 1.518 1.301l-6.857 8a1 1 0 0 1-.76.349zm0 14.999a.997.997 0 0 1-.6-.2L7.256 42.37a.999.999 0 1 1 1.2-1.599l3.822 2.866 6.248-7.287a.997.997 0 0 1 1.41-.108c.419.359.468.99.108 1.409l-6.857 7.999a1 1 0 0 1-.76.349z" fill="#fff"/><path fill="#eddcc7" d="M33.192 45.489l-.008.007-1.988 7.29 4.647-4.647z"/><path d="M52.442 31.54l-1.247-1.247a1.985 1.985 0 0 0-2.807 0l-3.582 3.582 2.651 2.651 4.985-4.986z" fill="#d75a4a"/><path fill="#f29c21" d="M44.806 33.875l2.65 2.65L35.844 48.14l-2.65-2.651z"/><path fill="#d6c4b1" d="M38.841 51.153l.008-.008-3.006-3.006-4.647 4.647-.133.488z"/><path d="M50.462 39.532l3.582-3.582a1.985 1.985 0 0 0 0-2.807l-1.602-1.602-4.985 4.985 3.005 3.006z" fill="#a34740"/><path fill="#e18c25" d="M38.848 51.146l-3.006-3.006 11.613-11.613 3.006 3.006z"/><path d="M30.356 54.981a.999.999 0 0 1-.707-1.707l2.207-2.207a.999.999 0 1 1 1.414 1.414l-2.207 2.207a.993.993 0 0 1-.707.293z" fill="#5e5e5e"/></svg><svg viewBox="0 0 484.975 484.975" id="menu" xmlns="http://www.w3.org/2000/svg"><path d="M462.419 165.912H22.556S0 165.912 0 127.625s22.556-38.287 22.556-38.287h439.863s22.556 0 22.556 38.287-22.556 38.287-22.556 38.287zm0 114.864H22.556S0 280.776 0 242.488 22.556 204.2 22.556 204.2h439.863s22.556 0 22.556 38.287c0 38.289-22.556 38.289-22.556 38.289zm0 114.861H22.556S0 395.637 0 357.351c0-38.288 22.556-38.288 22.556-38.288h439.863s22.556 0 22.556 38.288c0 38.286-22.556 38.286-22.556 38.286z" fill="#FFF"/></svg><svg viewBox="0 0 297 297" id="online-course" xmlns="http://www.w3.org/2000/svg"><g fill="#FFF"><path d="M0 282.298c0 5.458 4.426 9.884 9.884 9.884h277.232c5.458 0 9.884-4.426 9.884-9.884V14.701c0-5.457-4.426-9.883-9.884-9.883H9.884C4.426 4.818 0 9.244 0 14.701v267.597zM19.767 24.585h257.467v159.619H142.075v-34.923l37.929-37.623a9.88 9.88 0 0 0 .028-14.006l-.271-.271 56.209-42.156c4.366-3.275 5.251-9.471 1.977-13.838-3.275-4.366-9.47-5.251-13.838-1.977l-58.468 43.85-1.916-1.916a9.888 9.888 0 0 0-12.028-1.513l-19.72 11.689a42.332 42.332 0 0 0 1.619-11.587c0-23.434-19.065-42.499-42.499-42.499-23.435 0-42.499 19.065-42.499 42.499 0 9.72 3.287 18.681 8.797 25.849-9.714 8.48-12.344 21.346-13.412 26.588-2.775 13.617-3.153 31.365-3.205 51.835H19.767V24.585zm71.331 78.08c-12.535 0-22.732-10.197-22.732-22.732 0-12.534 10.197-22.731 22.732-22.731 12.534 0 22.731 10.197 22.731 22.731 0 12.535-10.197 22.732-22.731 22.732zm-27.746 33.651c1.406-6.9 3.288-11.186 5.417-13.885h47.115a9.886 9.886 0 0 0 5.039-1.381l34.25-20.302 3.864 3.864-33.806 33.534a9.88 9.88 0 0 0-2.924 7.017v39.04H60.544c.05-19.378.394-36.043 2.808-47.887zm213.881 67.655v68.444H19.767v-68.444h257.466z"/><path d="M258.003 227.197H80.115v-3.041c0-5.458-4.425-9.884-9.884-9.884-5.458 0-9.883 4.426-9.883 9.884v3.041H38.994c-5.458 0-9.883 4.426-9.883 9.884s4.425 9.884 9.883 9.884h21.354v3.041c0 5.458 4.425 9.884 9.883 9.884 5.459 0 9.884-4.426 9.884-9.884v-3.041h177.888c5.459 0 9.884-4.426 9.884-9.884s-4.425-9.884-9.884-9.884z"/></g></svg><svg viewBox="0 0 496 496" id="open-book" xmlns="http://www.w3.org/2000/svg"><path d="M472 116.07H24c-13.234 0-24 10.766-24 24v264c0 13.234 10.766 24 24 24h448c13.234 0 24-10.766 24-24v-264c0-13.234-10.766-24-24-24z" fill="#ff4f19"/><path fill="#e3001e" d="M224 388.07h48v40h-48z"/><path d="M464.219 364.07v24a8 8 0 0 1-8 8h-416a8 8 0 0 1-8-8v-24l47.781-24 192 8 160-8 32.219 24z" fill="#e6be8a"/><path d="M43.443 375.116a253.657 253.657 0 0 1 204.776 4.954v-288A253.656 253.656 0 0 0 36.97 89.894c-2.896 1.291-4.751 4.222-4.751 7.393v270.515c0 5.779 5.883 9.519 11.224 7.314z" fill="#ffebb7"/><path d="M248.219 380.07a253.653 253.653 0 0 1 204.776-4.954c5.341 2.205 11.224-1.535 11.224-7.314V97.287c0-3.171-1.855-6.102-4.751-7.393a253.656 253.656 0 0 0-211.249 2.176v288z" fill="#ffd788"/><path d="M280.219 327.824c-3.406 0-6.563-2.188-7.633-5.605-1.32-4.215 1.023-8.707 5.234-10.031a262.368 262.368 0 0 1 24.758-6.461c4.313-.906 8.563 1.855 9.469 6.188a7.994 7.994 0 0 1-6.188 9.469 246.757 246.757 0 0 0-23.242 6.07 8.059 8.059 0 0 1-2.398.37zm152 0a8.023 8.023 0 0 1-2.398-.371c-30.187-9.48-61.477-13.031-92.969-10.523-4.469.32-8.258-2.941-8.609-7.344a8.005 8.005 0 0 1 7.344-8.609c33.609-2.641 66.891 1.117 99.031 11.211 4.211 1.324 6.555 5.816 5.234 10.031-1.071 3.418-4.227 5.605-7.633 5.605zm0-32.094a8.023 8.023 0 0 1-2.398-.371c-48.156-15.125-99.047-15.125-147.203 0-4.234 1.324-8.719-1.023-10.031-5.234-1.32-4.215 1.023-8.707 5.234-10.031 51.297-16.109 105.5-16.109 156.797 0 4.211 1.324 6.555 5.816 5.234 10.031-1.071 3.418-4.227 5.605-7.633 5.605zm-152-31.906c-3.406 0-6.563-2.188-7.633-5.605-1.32-4.215 1.023-8.707 5.234-10.031 29.445-9.242 60-13.176 90.781-11.73 4.406.211 7.82 3.957 7.609 8.371-.203 4.422-3.891 7.797-8.375 7.613a245.112 245.112 0 0 0-85.219 11.012 8.047 8.047 0 0 1-2.397.37zm152 0a8.023 8.023 0 0 1-2.398-.371 246.488 246.488 0 0 0-31-7.566c-4.352-.77-7.258-4.918-6.484-9.27.766-4.348 4.922-7.258 9.266-6.488a263.149 263.149 0 0 1 33.016 8.059c4.211 1.324 6.555 5.816 5.234 10.031-1.072 3.418-4.228 5.605-7.634 5.605zm0-32.094a8.023 8.023 0 0 1-2.398-.371c-48.156-15.125-99.047-15.125-147.203 0-4.234 1.316-8.719-1.027-10.031-5.234-1.32-4.215 1.023-8.707 5.234-10.031 51.297-16.109 105.5-16.109 156.797 0 4.211 1.324 6.555 5.816 5.234 10.031-1.071 3.418-4.227 5.605-7.633 5.605zm-152-31.999c-3.406 0-6.563-2.188-7.633-5.605-1.32-4.215 1.023-8.707 5.234-10.031a261.98 261.98 0 0 1 49.523-10.422c4.453-.535 8.352 2.684 8.836 7.066.484 4.391-2.68 8.348-7.07 8.832a246.167 246.167 0 0 0-46.492 9.789 8.06 8.06 0 0 1-2.398.371zm152 0a8.023 8.023 0 0 1-2.398-.371 245.21 245.21 0 0 0-69.719-11.258 7.999 7.999 0 0 1-7.875-8.125c.07-4.414 3.93-8.133 8.125-7.875a261.412 261.412 0 0 1 74.266 11.992c4.211 1.324 6.555 5.816 5.234 10.031a8.009 8.009 0 0 1-7.633 5.606zm-152-31.907c-3.406 0-6.563-2.188-7.633-5.605-1.32-4.215 1.023-8.707 5.234-10.031 34.859-10.949 70.937-14.465 107.281-10.422 4.391.484 7.555 4.441 7.07 8.832-.484 4.387-4.359 7.637-8.836 7.066-34.094-3.781-67.992-.496-100.719 9.789a8.017 8.017 0 0 1-2.397.371zm152 0a8.023 8.023 0 0 1-2.398-.371 244.784 244.784 0 0 0-15.5-4.316c-4.289-1.047-6.922-5.375-5.875-9.668s5.344-6.918 9.672-5.879a265.258 265.258 0 0 1 16.5 4.598c4.211 1.324 6.555 5.816 5.234 10.031-1.071 3.418-4.227 5.605-7.633 5.605zm-152-32.093a8.003 8.003 0 0 1-7.633-5.609c-1.32-4.219 1.023-8.707 5.242-10.027 5.5-1.727 11.047-3.27 16.492-4.594 4.266-1.051 8.617 1.59 9.664 5.883 1.047 4.293-1.594 8.621-5.883 9.664a247.586 247.586 0 0 0-15.492 4.312 8.009 8.009 0 0 1-2.39.371zm152 0a8.023 8.023 0 0 1-2.398-.371c-32.734-10.285-66.617-13.566-100.719-9.789-4.422.539-8.352-2.684-8.836-7.066-.484-4.391 2.68-8.348 7.07-8.832 36.328-4.043 72.414-.527 107.281 10.422 4.211 1.324 6.555 5.816 5.234 10.031-1.07 3.417-4.226 5.605-7.632 5.605z" fill="#868491"/><path d="M64.219 327.824c-3.406 0-6.562-2.188-7.633-5.605-1.32-4.215 1.023-8.707 5.234-10.031a262.368 262.368 0 0 1 24.758-6.461 7.993 7.993 0 0 1 9.469 6.188 7.994 7.994 0 0 1-6.188 9.469 246.757 246.757 0 0 0-23.242 6.07 8.059 8.059 0 0 1-2.398.37zm152 0a8.023 8.023 0 0 1-2.398-.371c-30.18-9.48-61.477-13.031-92.969-10.523-4.531.32-8.258-2.941-8.609-7.344a8.005 8.005 0 0 1 7.344-8.609c33.609-2.641 66.883 1.117 99.031 11.211 4.211 1.324 6.555 5.816 5.234 10.031-1.071 3.418-4.227 5.605-7.633 5.605zm0-32.094a8.023 8.023 0 0 1-2.398-.371c-48.156-15.125-99.047-15.125-147.203 0-4.25 1.324-8.719-1.023-10.031-5.234-1.32-4.215 1.023-8.707 5.234-10.031 51.297-16.109 105.5-16.109 156.797 0 4.211 1.324 6.555 5.816 5.234 10.031-1.071 3.418-4.227 5.605-7.633 5.605zm-152-31.906c-3.406 0-6.562-2.188-7.633-5.605-1.32-4.215 1.023-8.707 5.234-10.031 29.445-9.242 60.023-13.176 90.781-11.73 4.406.211 7.82 3.957 7.609 8.371-.211 4.422-3.938 7.797-8.375 7.613-28.891-1.363-57.578 2.332-85.219 11.012a8.047 8.047 0 0 1-2.397.37zm152 0a8.023 8.023 0 0 1-2.398-.371 246.488 246.488 0 0 0-31-7.566c-4.352-.77-7.258-4.918-6.484-9.27.758-4.348 4.93-7.258 9.266-6.488a263.149 263.149 0 0 1 33.016 8.059c4.211 1.324 6.555 5.816 5.234 10.031-1.072 3.418-4.228 5.605-7.634 5.605zm-152-32.094c-3.406 0-6.562-2.188-7.633-5.605-1.32-4.215 1.023-8.707 5.234-10.031a261.703 261.703 0 0 1 140.289-4.594 8 8 0 0 1 5.883 9.668c-1.047 4.289-5.398 6.902-9.664 5.879a245.528 245.528 0 0 0-131.711 4.313 8.059 8.059 0 0 1-2.398.37zm0-31.999c-3.406 0-6.562-2.188-7.633-5.605-1.32-4.215 1.023-8.707 5.234-10.031a261.98 261.98 0 0 1 49.523-10.422c4.414-.535 8.352 2.684 8.836 7.066.484 4.391-2.68 8.348-7.07 8.832a246.167 246.167 0 0 0-46.492 9.789 8.06 8.06 0 0 1-2.398.371zm136.008-4.458a8.089 8.089 0 0 1-1.898-.227 245.728 245.728 0 0 0-54.227-6.945 7.999 7.999 0 0 1-7.875-8.125c.07-4.414 3.523-8.133 8.125-7.875a262.042 262.042 0 0 1 57.758 7.398 8 8 0 0 1-1.883 15.774zM64.219 167.824c-3.406 0-6.562-2.188-7.633-5.605-1.32-4.215 1.023-8.707 5.234-10.031 34.867-10.949 70.945-14.465 107.281-10.422 4.391.484 7.555 4.441 7.07 8.832-.484 4.387-4.391 7.637-8.836 7.066-34.094-3.781-67.992-.496-100.719 9.789a8.017 8.017 0 0 1-2.397.371zm0-32.093a8.004 8.004 0 0 1-7.633-5.609c-1.32-4.219 1.023-8.707 5.242-10.027 5.5-1.727 11.047-3.27 16.492-4.594 4.258-1.051 8.617 1.59 9.664 5.883 1.047 4.293-1.594 8.621-5.883 9.664a247.586 247.586 0 0 0-15.492 4.312 8.009 8.009 0 0 1-2.39.371zm136.008-4.461a8.089 8.089 0 0 1-1.898-.227c-27.961-6.809-56.633-8.641-85.227-5.473-4.391.539-8.352-2.676-8.836-7.066-.484-4.391 2.68-8.348 7.07-8.832 30.445-3.391 61-1.422 90.773 5.824a8 8 0 0 1-1.882 15.774z" fill="#b4b6bc"/><path d="M200.219 216.064c.001 3.194 3.561 5.1 6.219 3.328l17.781-11.854L242 219.392c2.658 1.772 6.219-.133 6.219-3.328V92.734c0-3.16-1.843-6.077-4.731-7.361-12.457-5.54-25.259-9.983-38.262-13.418-2.537-.67-5.03 1.292-5.029 3.916l.022 140.193z" fill="#5d647f"/></svg><svg viewBox="0 0 384.895 384.895" id="pharmacy" xmlns="http://www.w3.org/2000/svg"><path fill="#6ebeff" d="M14.085 26.113H370.81V370.22H14.085z"/><path fill="#fff" d="M24.949 142.276h139.502v227.943H24.949z"/><path d="M31.951 149.279h59.441v220.94H31.951zm66.442 0h59.441v220.94H98.393z" fill="#2d4151"/><path fill="#fff" d="M171.951 142.276h189v139.608h-189z"/><path fill="#2d4151" d="M177.951 149.279h85v126.062h-85zm92 0h85v126.062h-85z"/><path d="M153.72 273.167v93.296h-53.371s46.833-14.983 53.371-93.296zm-66 0v93.296H34.349s46.833-14.983 53.371-93.296z" opacity=".2" fill="#fcfafa"/><path d="M78.392 261.779h5v18h-5zm28 0h5v18h-5z" fill="#fff"/><path fill="#5db0e8" d="M29.757 42.92h336.002v75.895H29.757z"/><path fill="#fff" d="M24.949 38.112h336.002v75.895H24.949z"/><path d="M63.867 45.06c-17.259 0-31.25 13.879-31.25 31s13.991 31 31.25 31 31.25-13.879 31.25-31-13.991-31-31.25-31zm7.402 38.342v17.403H56.466V83.402H38.922V68.718h17.544V51.314h14.803v17.404h17.544v14.684H71.269z" fill="#39b54a"/><path d="M221.756 164.882c-13.918 0-25.202 11.193-25.202 25s11.283 25 25.202 25c13.918 0 25.202-11.193 25.202-25s-11.283-25-25.202-25zm5.969 30.921v14.035h-11.938v-14.035h-14.148v-11.842h14.148v-14.035h11.938v14.035h14.148v11.842h-14.148z" fill="#51697a"/><path d="M219.98 234.613c-11.966 0-21.667 9.7-21.667 21.667v25.605h43.333V256.28c.001-11.967-9.7-21.667-21.666-21.667z" fill="#fff"/><path d="M204.314 275.341v-19.062c0-8.639 7.028-15.667 15.667-15.667s15.666 7.028 15.666 15.667v19.062h-31.333z" fill="#2d4151"/><circle cx="210.98" cy="262.674" r="3" fill="#fff"/><path d="M146.441 77.442c-1.779 1.169-4.065 2.032-7.267 2.032h-7.927v14.329h-4.726V57.371h12.602c3.404 0 5.641.711 7.521 1.982 2.845 1.931 4.572 5.132 4.572 8.943.001 3.862-1.828 7.266-4.775 9.146zm-2.236-3.76c1.372-1.27 2.185-3.252 2.185-5.284 0-2.287-.965-4.319-2.591-5.589-1.118-.864-2.541-1.372-4.624-1.372h-7.927v13.972h7.927c2.235 0 3.861-.66 5.03-1.727zm27.591 20.121V80.948c0-2.083-.203-3.303-.711-4.37-.763-1.575-2.235-2.592-4.421-2.592-2.185 0-3.861 1.016-4.776 2.388-.66 1.016-1.066 2.134-1.066 4.37v13.059h-4.472V57.371h4.472v15.955l.051.051c1.575-1.88 4.268-2.947 6.859-2.947 2.947 0 5.843 1.321 7.367 4.065.763 1.474 1.169 3.15 1.169 6.047v13.262h-4.472v-.001zm24.747-12.144v-1.626c0-2.337-.509-3.557-1.423-4.522-.966-1.016-2.338-1.524-4.015-1.524-1.829 0-4.166.711-6.352 2.287l-1.778-3.049c2.592-1.88 5.793-2.795 8.689-2.795 2.692 0 5.183.762 6.91 2.541 1.778 1.931 2.337 3.811 2.337 7.012v13.821h-4.115l-.152-2.185c-1.626 1.931-4.624 2.744-6.962 2.744-5.335 0-8.485-3.455-8.485-7.571 0-3.811 2.896-7.469 8.689-7.469 2.287-.001 4.98.863 6.657 2.336zm-5.793.813c-3.15 0-5.183 1.728-5.183 4.268 0 2.49 1.931 4.319 5.132 4.319s5.844-1.626 5.844-4.319c0-2.743-3.15-4.268-5.793-4.268zm25.56-8.079c-2.693 0-4.929 1.982-4.929 7.063v12.347h-4.472V70.938h4.217l.153 2.947c1.523-2.083 3.455-3.455 5.995-3.455 1.169 0 2.135.254 3.303.915l-.965 3.912c-1.016-.508-2.287-.864-3.302-.864zm25.761-.711c1.829-2.032 4.37-3.252 7.673-3.252 2.845 0 5.995 1.271 7.418 4.065.712 1.474 1.067 3.15 1.067 6.047v13.262h-4.472V80.948c0-2.083-.203-3.303-.66-4.37-.712-1.575-2.135-2.592-4.167-2.592-2.083 0-3.607.915-4.472 2.287-.609 1.016-1.016 2.236-1.016 4.471v13.059h-4.472V80.948c0-2.083-.203-3.303-.66-4.37-.712-1.575-2.135-2.592-4.167-2.592-2.083 0-3.607.915-4.472 2.287-.609 1.016-1.016 2.236-1.016 4.471v13.059h-4.472V70.938h4.166l.204 2.795c.965-1.423 3.455-3.303 6.859-3.303 2.543 0 5.084 1.067 6.659 3.252zm36.435 7.977v-1.626c0-2.337-.509-3.557-1.423-4.522-.966-1.016-2.338-1.524-4.015-1.524-1.829 0-4.166.711-6.352 2.287l-1.778-3.049c2.592-1.88 5.793-2.795 8.689-2.795 2.692 0 5.183.762 6.91 2.541 1.778 1.931 2.337 3.811 2.337 7.012v13.821h-4.115l-.152-2.185c-1.626 1.931-4.624 2.744-6.962 2.744-5.335 0-8.485-3.455-8.485-7.571 0-3.811 2.896-7.469 8.689-7.469 2.287-.001 4.98.863 6.657 2.336zm-5.793.813c-3.15 0-5.183 1.728-5.183 4.268 0 2.49 1.931 4.319 5.132 4.319s5.844-1.626 5.844-4.319c0-2.743-3.151-4.268-5.793-4.268zm26.88 8.333c2.998 0 4.878-1.372 6.657-3.811l3.149 2.185c-2.083 3.252-5.538 5.183-9.705 5.183-7.063 0-11.94-5.437-11.94-11.941 0-6.555 5.132-11.992 11.94-11.992 3.913 0 7.368 1.626 9.502 4.573l-3.049 2.49c-1.422-1.88-3.557-3.455-6.555-3.455-4.064 0-7.367 3.608-7.367 8.384.001 4.929 3.303 8.384 7.368 8.384zm11.789-19.867h4.878l6.91 17.276h.103l6.605-17.276h4.318l-13.617 33.485h-4.421l4.624-10.975-9.4-22.51z" fill="#e6e6e6"/><path d="M143.441 74.442c-1.779 1.169-4.065 2.032-7.267 2.032h-7.927v14.329h-4.726V54.371h12.602c3.404 0 5.641.711 7.521 1.982 2.845 1.931 4.572 5.132 4.572 8.943.001 3.862-1.828 7.266-4.775 9.146zm-2.236-3.76c1.372-1.27 2.185-3.252 2.185-5.284 0-2.287-.965-4.319-2.591-5.589-1.118-.864-2.541-1.372-4.624-1.372h-7.927v13.972h7.927c2.235 0 3.861-.66 5.03-1.727zm27.591 20.121V77.948c0-2.083-.203-3.303-.711-4.37-.763-1.575-2.235-2.592-4.421-2.592-2.185 0-3.861 1.016-4.776 2.388-.66 1.016-1.066 2.134-1.066 4.37v13.059h-4.472V54.371h4.472v15.955l.051.051c1.575-1.88 4.268-2.947 6.859-2.947 2.947 0 5.843 1.321 7.367 4.065.763 1.474 1.169 3.15 1.169 6.047v13.262h-4.472v-.001zm24.747-12.144v-1.626c0-2.337-.509-3.557-1.423-4.522-.966-1.016-2.338-1.524-4.015-1.524-1.829 0-4.166.711-6.352 2.287l-1.778-3.049c2.592-1.88 5.793-2.795 8.689-2.795 2.692 0 5.183.762 6.91 2.541 1.778 1.931 2.337 3.811 2.337 7.012v13.821h-4.115l-.152-2.185c-1.626 1.931-4.624 2.744-6.962 2.744-5.335 0-8.485-3.455-8.485-7.571 0-3.811 2.896-7.469 8.689-7.469 2.287-.001 4.98.863 6.657 2.336zm-5.793.813c-3.15 0-5.183 1.728-5.183 4.268 0 2.49 1.931 4.319 5.132 4.319s5.844-1.626 5.844-4.319c0-2.743-3.15-4.268-5.793-4.268zm25.56-8.079c-2.693 0-4.929 1.982-4.929 7.063v12.347h-4.472V67.938h4.217l.153 2.947c1.523-2.083 3.455-3.455 5.995-3.455 1.169 0 2.135.254 3.303.915l-.965 3.912c-1.016-.508-2.287-.864-3.302-.864zm25.761-.711c1.829-2.032 4.37-3.252 7.673-3.252 2.845 0 5.995 1.271 7.418 4.065.712 1.474 1.067 3.15 1.067 6.047v13.262h-4.472V77.948c0-2.083-.203-3.303-.66-4.37-.712-1.575-2.135-2.592-4.167-2.592-2.083 0-3.607.915-4.472 2.287-.609 1.016-1.016 2.236-1.016 4.471v13.059h-4.472V77.948c0-2.083-.203-3.303-.66-4.37-.712-1.575-2.135-2.592-4.167-2.592-2.083 0-3.607.915-4.472 2.287-.609 1.016-1.016 2.236-1.016 4.471v13.059h-4.472V67.938h4.166l.204 2.795c.965-1.423 3.455-3.303 6.859-3.303 2.543 0 5.084 1.067 6.659 3.252zm36.435 7.977v-1.626c0-2.337-.509-3.557-1.423-4.522-.966-1.016-2.338-1.524-4.015-1.524-1.829 0-4.166.711-6.352 2.287l-1.778-3.049c2.592-1.88 5.793-2.795 8.689-2.795 2.692 0 5.183.762 6.91 2.541 1.778 1.931 2.337 3.811 2.337 7.012v13.821h-4.115l-.152-2.185c-1.626 1.931-4.624 2.744-6.962 2.744-5.335 0-8.485-3.455-8.485-7.571 0-3.811 2.896-7.469 8.689-7.469 2.287-.001 4.98.863 6.657 2.336zm-5.793.813c-3.15 0-5.183 1.728-5.183 4.268 0 2.49 1.931 4.319 5.132 4.319s5.844-1.626 5.844-4.319c0-2.743-3.151-4.268-5.793-4.268zm26.88 8.333c2.998 0 4.878-1.372 6.657-3.811l3.149 2.185c-2.083 3.252-5.538 5.183-9.705 5.183-7.063 0-11.94-5.437-11.94-11.941 0-6.555 5.132-11.992 11.94-11.992 3.913 0 7.368 1.626 9.502 4.573l-3.049 2.49c-1.422-1.88-3.557-3.455-6.555-3.455-4.064 0-7.367 3.608-7.367 8.384.001 4.929 3.303 8.384 7.368 8.384zm11.789-19.867h4.878l6.91 17.276h.103l6.605-17.276h4.318l-13.617 33.485h-4.421l4.624-10.975-9.4-22.51z" fill="#2d4151"/><path fill="#6ebeff" d="M275.951 253.674h73v6.667h-73zm0-48.667h73v6.667h-73z"/><path d="M337.026 232.341h-10.091a2.954 2.954 0 0 0-2.954 2.954v18.379h16v-18.379a2.955 2.955 0 0 0-2.955-2.954z" fill="#fff"/><path fill="#ed4c58" d="M326.935 227.341h10.046v5h-10.046z"/><path d="M320.359 183.674h-10.091a2.954 2.954 0 0 0-2.954 2.954v18.379h16v-18.379a2.955 2.955 0 0 0-2.955-2.954z" fill="#fff"/><path fill="#39b54a" d="M310.268 178.674h10.046v5h-10.046zm-3.288 51.333h-15.667a1.5 1.5 0 0 1-1.5-1.5V217.84a1.5 1.5 0 0 1 1.5-1.5h15.667a1.5 1.5 0 0 1 1.5 1.5v10.667c0 .83-.671 1.5-1.5 1.5zm-14.166-3h12.667v-7.667h-12.667v7.667z"/><path d="M311.07 223.341h-23.846a3.243 3.243 0 0 0-3.243 3.243v23.846a3.243 3.243 0 0 0 3.243 3.243h23.846a3.243 3.243 0 0 0 3.243-3.243v-23.846a3.243 3.243 0 0 0-3.243-3.243z" fill="#39b54a"/><path d="M299.147 227.803c-5.96 0-10.791 4.792-10.791 10.704 0 5.912 4.831 10.704 10.791 10.704s10.791-4.792 10.791-10.704c-.001-5.911-4.832-10.704-10.791-10.704zm2.556 13.241v6.009h-5.111v-6.009h-6.058v-5.07h6.058v-6.009h5.111v6.009h6.058v5.07h-6.058z" fill="#fff"/><path fill="#ed4c58" d="M287.313 198.341h12.667v6.667h-12.667z"/><path fill="#fff" d="M302.281 177.674h-16.602l1.635 20.667h12.666zm27.033 2.333h15v25h-15z"/><path d="M340.927 197.841H332.7a1.386 1.386 0 0 1-1.386-1.386v-7.894c0-.766.621-1.386 1.386-1.386h8.227c.766 0 1.386.621 1.386 1.386v7.894a1.385 1.385 0 0 1-1.386 1.386z" fill="#ed4c58"/><path fill="#5db0e8" d="M190.98 281.884h65.333v15.333H190.98z"/><path fill="#fff" d="M186.314 275.34h65.333v15.333h-65.333z"/><path fill="#5db0e8" d="M0 14.674h384.895v11.438H0zm328.451 296.333h-124c-8.56 0-15.5 6.94-15.5 15.5 0 8.56 6.94 15.5 15.5 15.5h124c8.56 0 15.5-6.94 15.5-15.5 0-8.56-6.94-15.5-15.5-15.5z"/></svg><svg viewBox="0 0 512.002 512.002" id="recommended" xmlns="http://www.w3.org/2000/svg"><path d="M259.743 12.544L291.129.684a10.586 10.586 0 0 1 10.361 1.641l26.183 20.979a10.584 10.584 0 0 0 7.118 2.313l33.515-1.581a10.587 10.587 0 0 1 9.347 4.763l18.42 28.043a10.582 10.582 0 0 0 6.055 4.399l32.363 8.852c3.61.988 6.43 3.807 7.417 7.417l8.852 32.363a10.582 10.582 0 0 0 4.399 6.055l28.043 18.42a10.587 10.587 0 0 1 4.763 9.347l-1.581 33.515a10.587 10.587 0 0 0 2.313 7.118l20.979 26.185a10.586 10.586 0 0 1 1.641 10.361l-11.86 31.386a10.589 10.589 0 0 0 0 7.484l11.86 31.386a10.586 10.586 0 0 1-1.641 10.361l-20.979 26.185a10.584 10.584 0 0 0-2.313 7.118l1.581 33.515a10.587 10.587 0 0 1-4.763 9.347l-28.043 18.42a10.582 10.582 0 0 0-4.399 6.055l-8.852 32.363a10.584 10.584 0 0 1-7.417 7.417l-32.363 8.852a10.582 10.582 0 0 0-6.055 4.399l-18.42 28.043a10.587 10.587 0 0 1-9.347 4.763l-33.515-1.581a10.59 10.59 0 0 0-7.118 2.313l-26.185 20.979a10.586 10.586 0 0 1-10.361 1.641l-31.386-11.86a10.589 10.589 0 0 0-7.484 0l-31.386 11.86a10.586 10.586 0 0 1-10.361-1.641L184.325 488.7a10.584 10.584 0 0 0-7.118-2.313l-33.515 1.581a10.587 10.587 0 0 1-9.347-4.763l-18.42-28.043a10.582 10.582 0 0 0-6.055-4.399l-32.363-8.852a10.584 10.584 0 0 1-7.417-7.417l-8.852-32.363a10.582 10.582 0 0 0-4.399-6.055l-28.043-18.421a10.587 10.587 0 0 1-4.763-9.347l1.581-33.515a10.584 10.584 0 0 0-2.313-7.118L2.326 301.488a10.586 10.586 0 0 1-1.641-10.361l11.86-31.386a10.589 10.589 0 0 0 0-7.484L.685 220.871a10.586 10.586 0 0 1 1.641-10.361l20.979-26.183a10.584 10.584 0 0 0 2.313-7.118l-1.581-33.515a10.587 10.587 0 0 1 4.763-9.347l28.043-18.42a10.582 10.582 0 0 0 4.399-6.055l8.852-32.363a10.584 10.584 0 0 1 7.417-7.417l32.363-8.852a10.582 10.582 0 0 0 6.055-4.399l18.42-28.043a10.587 10.587 0 0 1 9.347-4.763l33.515 1.581a10.584 10.584 0 0 0 7.118-2.313l26.185-20.979A10.586 10.586 0 0 1 220.875.683l31.386 11.86c2.409.912 5.071.912 7.482.001z" fill="#ffc850"/><path d="M335.9 442.429c-147.089 0-266.329-119.24-266.329-266.329 0-39.393 8.621-76.751 23.971-110.394l-16.031 4.386a10.584 10.584 0 0 0-7.417 7.417l-8.853 32.363a10.587 10.587 0 0 1-4.399 6.056l-28.044 18.42a10.587 10.587 0 0 0-4.763 9.346l1.581 33.515a10.589 10.589 0 0 1-2.313 7.118L2.326 210.512a10.585 10.585 0 0 0-1.641 10.36l11.86 31.386a10.589 10.589 0 0 1 0 7.484L.685 291.128a10.586 10.586 0 0 0 1.641 10.361l20.979 26.185a10.584 10.584 0 0 1 2.313 7.118l-1.581 33.515a10.587 10.587 0 0 0 4.763 9.347l28.043 18.42a10.586 10.586 0 0 1 4.399 6.055l8.853 32.363a10.587 10.587 0 0 0 7.417 7.418l32.363 8.853c2.487.68 4.64 2.244 6.055 4.399l18.42 28.043a10.59 10.59 0 0 0 9.347 4.763l33.514-1.581a10.59 10.59 0 0 1 7.119 2.313l26.185 20.979a10.587 10.587 0 0 0 10.36 1.641l31.386-11.861a10.589 10.589 0 0 1 7.484 0l31.386 11.861a10.583 10.583 0 0 0 10.36-1.641l26.185-20.979a10.595 10.595 0 0 1 7.119-2.313l33.514 1.581a10.587 10.587 0 0 0 9.347-4.763l18.42-28.043a10.586 10.586 0 0 1 6.055-4.399l32.363-8.853a10.584 10.584 0 0 0 7.417-7.418l4.386-16.031c-33.645 15.348-71.004 23.968-110.397 23.968z" fill="#e1a546"/><circle cx="255.998" cy="255.997" r="204.185" fill="#ffdc64"/><path d="M354.171 401.689c-1.757-2.343-4.495-3.71-7.422-3.806-109.566-3.645-197.28-93.572-197.28-204.025 0-29.537 6.343-57.555 17.67-82.871 3.585-8.014-5.37-15.984-12.728-11.194-56.276 36.637-91.571 102.76-83.762 176.528 8.81 83.219 74.039 151.434 156.782 163.944 45.671 6.905 88.48-3.106 123.836-24.335 4.988-2.995 6.394-9.586 2.904-14.241z" fill="#ffc850"/><path d="M193.858 362.531h-53.266a8.878 8.878 0 0 1-8.878-8.878V211.611a8.878 8.878 0 0 1 8.878-8.878h53.266a8.878 8.878 0 0 1 8.878 8.878v142.042a8.878 8.878 0 0 1-8.878 8.878zm195.237-139.893c-1.156-11.551-11.736-19.905-23.345-19.905h-75.57c20.666-16.731 34.698-39.175 36.729-57.633 1.506-13.687-7.958-26.688-21.727-26.816-12.347-.114-22.397 9.76-22.397 22.08 0 7.993-17.348 31.713-49.86 42.267l-.142.047c-7.605 2.516-12.292 10.208-12.292 18.218v143.878a8.878 8.878 0 0 0 8.878 8.878h114.505c8.844 0 17.042-6.045 18.462-14.775 1.809-11.124-6.729-20.736-17.512-20.736h7.929c8.844 0 17.042-6.045 18.462-14.775 1.809-11.124-6.729-20.736-17.512-20.736h7.929c8.844 0 17.042-6.045 18.462-14.775 1.809-11.124-6.729-20.736-17.512-20.736h4.439c13.008.003 23.404-11.195 22.074-24.481z" fill="#fff"/><g fill="#fffab4"><path d="M335.9 300.387a8.878 8.878 0 0 0 0 17.756h16.851c8.844 0 17.042-6.045 18.462-14.775.164-1.015.154-1.997.153-2.981H335.9zm0-35.51a8.878 8.878 0 0 0 0 17.756h25.729c8.844 0 17.042-6.045 18.462-14.775.164-1.015.154-1.997.153-2.981H335.9zm0-35.51a8.878 8.878 0 0 0 0 17.756h31.116c10.723 0 19.555-7.646 21.628-17.755H335.9z"/><path d="M256.002 335.899c-9.806 0-17.755-7.949-17.755-17.755V208.752c0-3.561 2.131-6.745 5.396-8.165 14.532-6.323 60.259-30.663 65.074-78.458l-3.674-3.844c-12.283-.039-22.257 9.806-22.257 22.081 0 7.993-17.348 31.713-49.86 42.267a18.07 18.07 0 0 0-12.434 17.168v144.976a8.878 8.878 0 0 0 8.878 8.878h114.505c9.8 0 18.805-7.421 18.676-17.692l-.062-.063H256.002zm-88.777 8.877c-9.806 0-17.755-7.949-17.755-17.755V202.734h-8.878a8.878 8.878 0 0 0-8.878 8.878v142.042a8.878 8.878 0 0 0 8.878 8.878h53.266a8.878 8.878 0 0 0 8.878-8.878v-8.878h-35.511z"/></g><circle cx="167.222" cy="327.018" r="13.316" fill="#ffdc64"/></svg><svg viewBox="0 0 512 512" id="smartphones" xmlns="http://www.w3.org/2000/svg"><path d="M141.241 0h229.517c19.501 0 35.31 15.809 35.31 35.31v441.38c0 19.501-15.809 35.31-35.31 35.31H141.241c-19.501 0-35.31-15.809-35.31-35.31V35.31c0-19.501 15.809-35.31 35.31-35.31z" fill="#35495e"/><path d="M379.586 35.31v61.793H132.414V35.31a8.855 8.855 0 0 1 8.828-8.828h28.954a8.909 8.909 0 0 1 8.386 6.091l2.737 8.298a17.738 17.738 0 0 0 16.772 12.094h115.818a17.738 17.738 0 0 0 16.772-12.094l2.737-8.298a8.909 8.909 0 0 1 8.386-6.091h28.954a8.854 8.854 0 0 1 8.828 8.828zm0 361.931v79.448a8.855 8.855 0 0 1-8.828 8.828H141.241a8.855 8.855 0 0 1-8.828-8.828v-79.448h247.173z" fill="#b0d3f0"/><path fill="#90bae1" d="M132.414 97.103h247.172v300.138H132.414z"/><path d="M300.138 35.31a8.743 8.743 0 0 1-8.827-8.827 9.274 9.274 0 0 1 2.56-6.268 9.24 9.24 0 0 1 12.534 0 8.95 8.95 0 0 1 0 12.534 9.295 9.295 0 0 1-6.267 2.561z" fill="#a5a5a4"/><path d="M167.724 423.724h17.655a8.828 8.828 0 0 1 8.828 8.828v17.655a8.828 8.828 0 0 1-8.828 8.828h-17.655a8.828 8.828 0 0 1-8.828-8.828v-17.655a8.829 8.829 0 0 1 8.828-8.828z" fill="#14a085"/><path d="M220.69 423.724h17.655a8.828 8.828 0 0 1 8.828 8.828v17.655a8.828 8.828 0 0 1-8.828 8.828H220.69a8.828 8.828 0 0 1-8.828-8.828v-17.655a8.827 8.827 0 0 1 8.828-8.828z" fill="#4482c3"/><path d="M273.655 423.724h17.655a8.828 8.828 0 0 1 8.828 8.828v17.655a8.828 8.828 0 0 1-8.828 8.828h-17.655a8.828 8.828 0 0 1-8.828-8.828v-17.655a8.829 8.829 0 0 1 8.828-8.828z" fill="#14a085"/><path d="M326.621 423.724h17.655a8.828 8.828 0 0 1 8.828 8.828v17.655a8.828 8.828 0 0 1-8.828 8.828h-17.655a8.828 8.828 0 0 1-8.828-8.828v-17.655a8.827 8.827 0 0 1 8.828-8.828z" fill="#e6e7e8"/><path d="M167.724 123.586h17.655a8.828 8.828 0 0 1 8.828 8.828v17.655a8.828 8.828 0 0 1-8.828 8.828h-17.655a8.828 8.828 0 0 1-8.828-8.828v-17.655a8.829 8.829 0 0 1 8.828-8.828z" fill="#4482c3"/><path d="M220.69 123.586h17.655a8.828 8.828 0 0 1 8.828 8.828v17.655a8.828 8.828 0 0 1-8.828 8.828H220.69a8.828 8.828 0 0 1-8.828-8.828v-17.655a8.827 8.827 0 0 1 8.828-8.828z" fill="#cb9080"/><path d="M273.655 123.586h17.655a8.828 8.828 0 0 1 8.828 8.828v17.655a8.828 8.828 0 0 1-8.828 8.828h-17.655a8.828 8.828 0 0 1-8.828-8.828v-17.655a8.829 8.829 0 0 1 8.828-8.828z" fill="#e6e7e8"/><path d="M326.621 123.586h17.655a8.828 8.828 0 0 1 8.828 8.828v17.655a8.828 8.828 0 0 1-8.828 8.828h-17.655a8.828 8.828 0 0 1-8.828-8.828v-17.655a8.827 8.827 0 0 1 8.828-8.828z" fill="#4482c3"/><path d="M167.724 185.379h17.655a8.828 8.828 0 0 1 8.828 8.828v17.655a8.828 8.828 0 0 1-8.828 8.828h-17.655a8.828 8.828 0 0 1-8.828-8.828v-17.655a8.83 8.83 0 0 1 8.828-8.828z" fill="#cb9080"/><path d="M220.69 185.379h17.655a8.828 8.828 0 0 1 8.828 8.828v17.655a8.828 8.828 0 0 1-8.828 8.828H220.69a8.828 8.828 0 0 1-8.828-8.828v-17.655a8.828 8.828 0 0 1 8.828-8.828z" fill="#e6e7e8"/><path d="M273.655 185.379h17.655a8.828 8.828 0 0 1 8.828 8.828v17.655a8.828 8.828 0 0 1-8.828 8.828h-17.655a8.828 8.828 0 0 1-8.828-8.828v-17.655a8.83 8.83 0 0 1 8.828-8.828z" fill="#14a085"/><path d="M326.621 185.379h17.655a8.828 8.828 0 0 1 8.828 8.828v17.655a8.828 8.828 0 0 1-8.828 8.828h-17.655a8.828 8.828 0 0 1-8.828-8.828v-17.655a8.828 8.828 0 0 1 8.828-8.828z" fill="#4482c3"/><path d="M167.724 247.172h17.655a8.828 8.828 0 0 1 8.828 8.828v17.655a8.828 8.828 0 0 1-8.828 8.828h-17.655a8.828 8.828 0 0 1-8.828-8.828V256a8.83 8.83 0 0 1 8.828-8.828z" fill="#e6e7e8"/><path d="M220.69 247.172h17.655a8.828 8.828 0 0 1 8.828 8.828v17.655a8.828 8.828 0 0 1-8.828 8.828H220.69a8.828 8.828 0 0 1-8.828-8.828V256a8.828 8.828 0 0 1 8.828-8.828z" fill="#4482c3"/><path d="M273.655 247.172h17.655a8.828 8.828 0 0 1 8.828 8.828v17.655a8.828 8.828 0 0 1-8.828 8.828h-17.655a8.828 8.828 0 0 1-8.828-8.828V256a8.83 8.83 0 0 1 8.828-8.828z" fill="#14a085"/><path d="M326.621 247.172h17.655a8.828 8.828 0 0 1 8.828 8.828v17.655a8.828 8.828 0 0 1-8.828 8.828h-17.655a8.828 8.828 0 0 1-8.828-8.828V256a8.828 8.828 0 0 1 8.828-8.828z" fill="#e6e7e8"/><path d="M167.724 308.966h17.655a8.828 8.828 0 0 1 8.828 8.828v17.655a8.828 8.828 0 0 1-8.828 8.828h-17.655a8.828 8.828 0 0 1-8.828-8.828v-17.655a8.829 8.829 0 0 1 8.828-8.828z" fill="#14a085"/><path d="M220.69 308.966h17.655a8.828 8.828 0 0 1 8.828 8.828v17.655a8.828 8.828 0 0 1-8.828 8.828H220.69a8.828 8.828 0 0 1-8.828-8.828v-17.655a8.827 8.827 0 0 1 8.828-8.828z" fill="#4482c3"/><path d="M273.655 308.966h17.655a8.828 8.828 0 0 1 8.828 8.828v17.655a8.828 8.828 0 0 1-8.828 8.828h-17.655a8.828 8.828 0 0 1-8.828-8.828v-17.655a8.829 8.829 0 0 1 8.828-8.828z" fill="#e6e7e8"/><path d="M326.621 308.966h17.655a8.828 8.828 0 0 1 8.828 8.828v17.655a8.828 8.828 0 0 1-8.828 8.828h-17.655a8.828 8.828 0 0 1-8.828-8.828v-17.655a8.827 8.827 0 0 1 8.828-8.828z" fill="#cb9080"/><path d="M273.655 379.586h-35.31a8.828 8.828 0 0 1 0-17.656h35.31a8.828 8.828 0 0 1 0 17.656z" fill="#e6e7e8"/><path d="M176.552 79.448h-17.655a8.828 8.828 0 0 1 0-17.656h17.655a8.828 8.828 0 0 1 0 17.656zm176.551 0h-17.655a8.828 8.828 0 0 1 0-17.656h17.655a8.828 8.828 0 0 1 0 17.656z" fill="#2c3e50"/></svg><svg viewBox="0 0 485.138 485.138" id="trendy" xmlns="http://www.w3.org/2000/svg"><path fill="#afb6bb" d="M329.164 272.26l89.069 128.654h-44.535v74.225H284.63v-74.225h-44.535l44.535-64.328z"/><path fill="#f4661e" d="M240.095 10l89.069 128.656H284.63v197.93l-44.535 64.328h44.535v74.225h-89.069V306.897h44.534l-44.534-64.329V138.656h-44.535z"/><path fill="#ffd248" d="M195.561 242.568l44.534 64.329h-44.534v168.242h-89.069V306.897H61.957l89.069-128.655z"/><g fill="#231f20"><path d="M383.698 410.914h34.535a9.999 9.999 0 1 0 8.221-15.692l-89.069-128.654a10 10 0 0 0-16.444 0l-26.313 38.007V148.656h34.534a9.996 9.996 0 0 0 8.857-5.359 9.996 9.996 0 0 0-.636-10.333L248.316 4.308a9.998 9.998 0 0 0-16.443 0l-89.068 128.656a10.002 10.002 0 0 0-.636 10.334 10.002 10.002 0 0 0 8.858 5.358h34.534v61.9l-26.313-38.007a10.002 10.002 0 0 0-16.444 0L53.735 301.204a10 10 0 0 0 8.222 15.692h34.535v148.242H32.268v20h415.655v-20h-64.225v-54.224zm-54.534-121.086l69.983 101.086h-25.449c-5.522 0-10 4.478-10 10v64.225H294.63v-64.225c0-5.522-4.478-10-10-10h-25.449l69.983-101.086zM195.561 128.656h-25.449l69.983-101.088 69.983 101.088H284.63c-5.522 0-10 4.478-10 10v194.807l-42.757 61.759a10 10 0 0 0 8.222 15.692h34.535v54.225h-69.069V316.897h34.534a9.999 9.999 0 1 0 8.221-15.692l-42.756-61.759v-100.79c.001-5.522-4.476-10-9.999-10zm-89.069 168.241H81.043l69.983-101.086 69.983 101.086H195.56c-5.523 0-10 4.478-10 10v158.242h-69.068V306.897c0-5.523-4.477-10-10-10z"/><path d="M334.112 192.982v20h14.742v14.743h20v-14.743h14.741v-20h-14.741v-14.74h-20v14.74zm34.534-93.914h20v-14.74h14.743v-20h-14.743V49.586h-20v14.742h-14.741v20h14.741zM126.182 69.379h20v-14.74h14.741v-20h-14.741V19.896h-20v14.743H111.44v20h14.742zM47.009 198.035h20v-14.742H81.75v-20H67.009v-14.74h-20v14.74H32.268v20h14.741zm-4.948 207.826h20v-14.74h14.741v-20H62.061v-14.742h-20v14.742H27.319v20h14.742zM443.078 287v-14.74h-20V287h-14.741v20h14.741v14.742h20V307h14.741v-20z"/></g></svg><svg viewBox="0 0 479.754 479.754" id="web-log-in" xmlns="http://www.w3.org/2000/svg"><g fill="#FFF"><path d="M468.146 25.092H129.638c-6.411 0-11.608 5.198-11.608 11.608 0 6.413 5.197 11.61 11.608 11.61h326.899v383.133H129.638c-6.411 0-11.608 5.196-11.608 11.611 0 6.408 5.197 11.606 11.608 11.606h338.508c6.41 0 11.607-5.198 11.607-11.606V36.701c.001-6.41-5.196-11.609-11.607-11.609z"/><path d="M176.793 310.41c-4.535 4.536-4.535 11.883 0 16.419a11.579 11.579 0 0 0 8.211 3.4 11.58 11.58 0 0 0 8.206-3.4l71.589-71.588c4.536-4.535 4.536-11.885 0-16.417l-71.589-71.598c-4.534-4.538-11.882-4.538-16.417 0-4.535 4.528-4.535 11.881 0 16.414l51.771 51.781H11.61C5.199 235.42 0 240.62 0 247.03c0 6.412 5.199 11.611 11.61 11.611h216.954l-51.771 51.769z"/></g></svg><svg viewBox="0 0 310 310" id="youtube" xmlns="http://www.w3.org/2000/svg"><path d="M297.917 64.645c-11.19-13.302-31.85-18.728-71.306-18.728H83.386c-40.359 0-61.369 5.776-72.517 19.938C0 79.663 0 100.008 0 128.166v53.669c0 54.551 12.896 82.248 83.386 82.248h143.226c34.216 0 53.176-4.788 65.442-16.527C304.633 235.518 310 215.863 310 181.835v-53.669c0-29.695-.841-50.16-12.083-63.521zm-98.896 97.765l-65.038 33.991a9.997 9.997 0 0 1-14.632-8.863v-67.764a10 10 0 0 1 14.609-8.874l65.038 33.772a10 10 0 0 1 .023 17.738z" fill="#FFF"/></svg></svg>